<?xml version="1.0" encoding="UTF-8" standalone="no"?>
<svg
   id="Layer_1"
   viewBox="0 0 66.1 24.7"
   version="1.1"
   sodipodi:docname="90fb0caa5319c39b24946476dd32bb0d.svg"
   inkscape:version="1.2.2 (732a01da63, 2022-12-09)"
   xmlns:inkscape="http://www.inkscape.org/namespaces/inkscape"
   xmlns:sodipodi="http://sodipodi.sourceforge.net/DTD/sodipodi-0.dtd"
   xmlns="http://www.w3.org/2000/svg"
   xmlns:svg="http://www.w3.org/2000/svg">
  <defs
     id="defs27" />
  <sodipodi:namedview
     id="namedview25"
     pagecolor="#ffffff"
     bordercolor="#000000"
     borderopacity="0.25"
     inkscape:showpageshadow="2"
     inkscape:pageopacity="0.0"
     inkscape:pagecheckerboard="0"
     inkscape:deskcolor="#d1d1d1"
     showgrid="false"
     inkscape:zoom="18.305598"
     inkscape:cx="33.049999"
     inkscape:cy="12.34595"
     inkscape:window-width="1920"
     inkscape:window-height="1017"
     inkscape:window-x="-8"
     inkscape:window-y="-8"
     inkscape:window-maximized="1"
     inkscape:current-layer="Layer_1" />
  <style
     id="style2">.st0{fill:#fff}.st1{fill:#f9a83a}</style>
  <switch
     id="switch22">
    <g
       id="g20">
      <g
         id="g18">
        <g
           id="g6">
          <path
             d="M60.2 24.1c-.8.1-1.3.1-1.5.2-.4.2-1.3.4-2.4.4-1.4 0-2.7-.5-3.8-1.3h-.8c-.3 0-.5 0-.8-.1-1.1.4-2.1.4-2.7.4H48c-1.4.1-2.8-.2-4-.8-.6.2-1.1.3-1.7.3l-3.7.1c-1.7 0-3.2-.6-4.4-1.7-.5 0-1-.1-1.4-.2-.6.7-1.4 1.3-2.4 1.8-1.9.9-4 1-6 .2-.2-.1-.5-.2-.7-.3l-2.3.3h-.7c-.3.1-.5.3-.7.4-1.5.7-2.9.7-3.5.7H16c-1.7 0-3.4-.5-4.7-1.4-.4.1-.9.2-1.3.2-.9.6-2 1-3.2 1.1h-.4c-3.3 0-6-2.5-6.3-5.8v-.1c0-.5-.1-1.6 0-2.8 0-.6.1-1.5.1-1.7 0-.8.2-1.6.5-2.4-.2-.8-.1-1.6 0-2.4v-.3c.1-.7.3-2.1 1-3.5C3 3 5.4 1.5 8.1 1.5 9 1 9.9.8 10.9.8h.3c2 .1 3.8 1.1 4.9 2.7.9-.8 2-1.3 3.2-1.5 2.4-.3 4.4-.4 6.1-.1.9-.8 2.1-1.4 3.3-1.5l2.6-.4h.8c1.5 0 3 .6 4.2 1.6h.2l3.8-.1c1.6 0 3-.1 3.3-.1h.5c1.4 0 2.9.5 4 1.4 1.1-.8 2.4-1.2 3.8-1.2h1.3c1-.6 2.1-1 3.3-1l3.2-.1h.1c3.4 0 6.2 2.8 6.3 6.2 0 1.6-.5 3-1.5 4.2v2.9c.9 1 1.4 2.3 1.5 3.7.2 3.4-2.4 6.3-5.9 6.6z"
             class="st0"
             id="path4" />
        </g>
        <path
           d="M60 20.5c-1.3.1-2.1.2-2.3.3l-.1.1c-.3.1-.7.3-1.2.3-.6 0-1.3-.2-1.8-.7-.2-.2-.4-.4-.5-.6h-2.3c-.4 0-.8-.1-1.1-.3-.1.1-.3.1-.4.2-.8.4-1.5.4-2 .4h-.5c-1.5 0-2.7-.5-3.5-1.4-.5.5-1.2.8-1.9.8l-3.7.1c-1.3 0-2.5-1-2.7-2.2-.5.3-1 .5-1.6.5-.6 0-1.2-.2-1.7-.5-.1-.1-.2-.2-.3-.2-.3.2-.7.2-1.1.2H31c-.4 1.2-1.1 2-2.2 2.5-.5.2-1.1.4-1.6.4s-1.1-.1-1.6-.3c-.5-.2-.9-.5-1.2-.8-.2.1-.4.1-.6.2l-2.9.4h-.4c-.3 0-.5 0-.8-.1-.4.4-.9.6-1.3.8-.8.4-1.5.4-2 .4h-.5c-1.8 0-3.2-.8-4-1.9-.8.5-1.8.8-2.7.8h-.6c0 .1-.1.1-.1.2-.5.5-1.2.9-1.9.9h-.2c-1.4 0-2.6-1.1-2.7-2.6v-.1c0-.5-.1-1.4 0-2.4 0-.7.1-1.8.1-1.8 0-.7.3-1.3.7-1.8-.4-.8-.5-1.7-.3-2.7v-.2c.1-.6.2-1.5.6-2.4.7-1.3 2-2 3.5-2H9c.5-.4 1.1-.7 1.8-.7 1.5 0 2.7 1.3 2.7 2.8v1.1c.5-.2 1.1-.3 1.7-.3.3 0 .5 0 .8.1.4-.5 1-.8 1.6-.9.1-.2.2-.3.3-.5.4-.6 1.1-1 1.8-1.1.6-.1 1.8-.2 3.2-.2 1.6 0 2.9.2 3.9.7.3-1.1 1.1-1.9 2.3-2.1l2.6-.4h.4c.8 0 1.5.3 2 .9.2.2.5.6.6.9l.1.3c.5-.3 1-.5 1.6-.5l3.9-.1c1.9 0 3.6-.1 3.6-.2h.2c.7 0 1.5.3 2 .8.4.4.7.9.8 1.5h.2c.3 0 .5 0 .8.1.4-.5 1-.8 1.6-.9.5-.7 1.4-1.3 2.4-1.3h2.6c.5-.6 1.2-1 2.1-1h3.2c1.5 0 2.7 1.2 2.8 2.7 0 1.1-.6 2.1-1.5 2.5v6.1c.8.4 1.4 1.3 1.5 2.3.1 1.5-1.1 2.8-2.6 2.9z"
           class="st1"
           id="path8" />
        <path
           d="M32.3 8.5l-.7 3.6 2-.3z"
           class="st1"
           id="path10" />
        <path
           d="M8.4 12c-.7-.1-1.1-.6-.9-2v-.2c.2-1.2.3-1.5.9-1.5.2 0 .4.1.6.3.2.2.6.5.8 1.1.2.4.2.7.3 1v.4c0 .2.2.4.5.5.3.1.6-.2.7-.5 0 0 .2-3.8.2-3.9 0-.3-.3-.6-.6-.6s-.6.3-.6.6v1.1c-.5-.5-1.1-1-1.8-1C6.6 7 6.4 8.7 6.3 9.7v.2c-.2 1.9.4 3.1 1.9 3.4 1.6.3 2.7.6 2.7 1.6 0 .4-.2.8-.6 1.1-.4.4-1 .5-1.6.4-.2 0-.3-.1-.5-.1-.2-.1-.8-.4-1-.8-.1-.4-.2-.9-.2-1.2v-.2c0-.3-.3-.6-.6-.6s-.6.3-.6.6c0 0 0 1.2-.1 1.9-.1 1.2 0 2.1 0 2.2 0 .3.3.6.6.6s.6-.3.6-.6v-1.1c.4.3 1 .6 1.7.7.9.2 1.8-.1 2.5-.7.6-.5 1-1.3 1-2 0-2.5-2.5-2.9-3.7-3.1M25.2 10.3c-.1.1-.2.2-.4.3-.1.1-.4.2-.5.2l-.3.1c-.4.2-1 .3-1.6.4V8.5c1.6 0 3 .1 3.3.6v.2c0 .2-.2.6-.5 1m3.5 5.4c-.3-.1-.7.1-.8.4-.2.7-.4.7-.5.8-.1.1-.3 0-.6-.1 0 0-.1-.2-.2-.3-.1-.2-.2-1-.2-1.5 0-1.8-.4-2.8-.9-3.3.3-.2.6-.5.6-.5.7-1 .9-1.8.5-2.5-1-1.7-5.3-1.2-6.7-1-.3 0-.6.4-.5.7 0 .3.4.6.7.5.3 0 .6-.1.9-.1v2.8h-.3c-.3 0-.6.3-.6.6s.3.6.6.6h.3v3.5l-.8.1c-.3 0-.6.4-.5.7 0 .3.4.6.7.5l2.9-.4c.3 0 .6-.4.5-.7 0-.3-.4-.6-.7-.5l-.9.1v-3.5c.6-.1 1.1-.2 1.6-.4h.2c.2 0 .4.1.5.3.2.3.4.9.5 2.4 0 .3.1 1.5.3 2 .1.2.4.7.9.9.4.1.9.3 1.5 0 .5-.3.9-.6 1.1-1.5.4-.2.2-.5-.1-.6M50.5 13.8c-.3 0-.6.3-.6.6v.8c0 .3-.1.7-.2.8-.1.2-.2.3-.4.5-.1.1-.3.2-.5.3-.2.1-.3.1-.7.1h-.4c-1.6.1-1.8-1.2-1.8-1.5v-2.6c.1-1 .3-1.7.7-2 .3-.2.7-.1 1.4.1.8.3 1.3 1.2 1.4 1.2.1.2.4.3.7.3.3-.1.4-.3.4-.6V9.1c0-.3-.3-.6-.6-.6s-.6.3-.6.6v1.1c-.2-.2-.5-.3-.8-.5-.3-.2-1.5-.7-2.4-.1-.7.5-1.2 1.4-1.3 2.9v2.8c.1.9.8 2.7 3 2.7h.3c.4 0 .8 0 1.2-.2.3-.1.6-.3.9-.6.2-.2.3-.4.5-.7.2-.4.3-1.1.4-1.3v-1c0-.2-.3-.4-.6-.4M60.4 17.8c0-.3-.3-.6-.6-.6-.2 0-.5 0-.8.1 0-1 0-3.1-.1-9.9h.9c.3 0 .6-.3.6-.6s-.3-.6-.6-.6l-3.2.1c-.3 0-.6.3-.6.6s.3.6.6.6h1v4.2l-3.6.6V8.5h1c.3 0 .6-.3.6-.6s-.3-.6-.6-.6h-3.2c-.3 0-.6.3-.6.6s.3.6.6.6h1v8.1h-1c-.3 0-.6.3-.6.6s.3.6.6.6l3.3.1c.3 0 .6-.3.6-.6s-.3-.6-.6-.6h-1v-3.1l3.6-.6v4.6c-.8.2-1.4.2-1.7.6-.2.2-.2.6.1.8.2.2.5.1.9 0 .3-.2 1.5-.3 2.9-.4.3-.2.5-.5.5-.8"
           class="st0"
           id="path12" />
        <path
           d="M31.6 12.1l.7-3.6 1.3 3.3-2 .3zm5.3 1c-.2.1-.5.2-1.1.5l-.8-1.9-2.3-5.5c0-.1-.1-.3-.2-.3-.1-.1-.3-.2-.5-.2l-2.6.3c-.3 0-.6.3-.5.7 0 .3.3.6.7.5 0 0 1-.1 1.8-.2-.2 1.1-1.1 5.6-1.4 7l-1.8-.1c-.3 0-.6.2-.6.6 0 .3.2.6.6.6l3 .1c.3 0 .6-.2.6-.6 0-.3-.2-.6-.6-.6l.1-.9 2.8-.5.6 1.5c-.5.3-.7.4-1 .7-.2.3-.1.6.1.8.3.2.7.1.9-.1.3-.4 1.4-.9 2.5-1.3.3-.1.5-.5.4-.8-.1-.2-.4-.4-.7-.3"
           class="st0"
           id="path14" />
        <path
           d="M44.1 7s-1.8.1-3.8.2l-3.9.1c-.2 0-.3.1-.5.2-.1.1-.2.3-.1.5l.5 3c0 .3.4.6.7.5.3 0 .5-.3.5-.6 0 0-.2-1.6-.4-2.4h2.6v7.9h-1.3c-.3 0-.6.3-.6.6s.3.6.6.6l3.7-.1c.3 0 .6-.3.6-.6s-.3-.6-.6-.6h-1.2V8.4c1 0 1.9-.1 2.5-.1v1.2c0 .6.1.8.1.9.2.3.5.4.8.2.2-.1.3-.4.3-.6 0 0 0-1.4.1-2.2 0-.2 0-.3-.2-.5 0-.2-.2-.3-.4-.3M18.6 14.4c-.3 0-.6.3-.6.6V15.9c0 .2-.1.6-.2.8-.1.2-.2.3-.4.5-.1.1-.3.2-.5.3-.2.1-.3.1-.7.1h-.4c-1.6 0-1.8-1.2-1.8-1.5v-2.6c.1-1 .3-1.7.7-2 .3-.2.7-.1 1.4.1.8.3 1.4 1.2 1.4 1.2.1.2.4.3.7.3.3-.1.4-.3.4-.6V9.8c0-.3-.3-.6-.6-.6s-.6.3-.6.6v1.1c-.2-.2-.5-.4-.8-.5-.4-.2-1.5-.6-2.5-.1-.7.5-1.2 1.4-1.3 2.9V16c.1.9.8 2.7 3.1 2.7h.3c.4 0 .8 0 1.2-.2.3-.1.6-.3.9-.6.2-.2.3-.4.5-.7.2-.4.3-1.1.4-1.3v-1c0-.2-.3-.5-.6-.5"
           class="st0"
           id="path16" />
      </g>
    </g>
  </switch>
  <path
     style="fill:#0066ff"
     id="path198"
     d="m 55.447998,11.435276 c -0.554044,-0.209194 -1.143691,-0.285994 -1.728378,-0.353541 -0.766869,-0.05456 -1.551731,-0.139218 -2.317158,-0.01474 -0.184412,0.02999 -0.36471,0.08134 -0.547065,0.122004 -0.169907,0.05705 -0.343998,0.102898 -0.509722,0.171155 -0.799657,0.329361 -1.494592,0.885906 -2.096603,1.497825 -0.152437,0.154946 -0.292868,0.321262 -0.439302,0.481894 -0.626362,0.756664 -1.166136,1.619445 -1.334703,2.603882 -0.03201,0.186934 -0.03644,0.377556 -0.05466,0.566334 0.02547,0.440188 0.01053,0.683212 0.15052,1.107374 0.126831,0.384277 0.327909,0.732263 0.576464,1.049586 0.322771,0.412074 0.479764,0.508445 0.879293,0.844672 0.175157,0.11541 0.343939,0.24113 0.52547,0.346229 0.806185,0.466748 1.728732,0.747723 2.642238,0.907166 0.273145,0.04768 0.549389,0.07547 0.824084,0.113201 1.001902,0.07618 2.025929,0.119889 3.020489,-0.063 0.538768,-0.09907 0.683533,-0.171931 1.19012,-0.350859 0.88332,-0.367066 1.654367,-0.945255 2.297184,-1.650417 0.141487,-0.155209 0.271066,-0.320871 0.406599,-0.481307 0.393995,-0.507515 0.717749,-1.064225 0.962843,-1.65808 0.06651,-0.161157 0.128947,-0.3246 0.176702,-0.492274 0.117682,-0.413201 0.101018,-0.504605 0.124657,-0.919469 -0.0068,-0.773034 -0.324392,-1.473906 -0.681911,-2.142027 -0.25563,-0.43409 -0.54472,-0.852421 -0.894623,-1.21668 -0.23642,-0.24612 -0.333035,-0.316387 -0.589973,-0.532966 -0.40169,-0.31265 -0.838941,-0.579306 -1.297403,-0.800336 -0.2898,-0.139717 -0.43492,-0.191801 -0.735795,-0.312428 -0.511446,-0.176102 -0.258664,-0.09564 -0.757924,-0.242694 -0.745765,-0.2184809 -1.054744,0.836191 -0.308978,1.054672 v 0 c 0.434634,0.126546 0.21484,0.05739 0.659049,0.20854 0.618624,0.246354 1.208123,0.519619 1.735304,0.934697 0.201436,0.167471 0.291251,0.233486 0.475746,0.422256 0.292808,0.299593 0.531963,0.647234 0.746658,1.005416 0.265626,0.491161 0.523359,1.006358 0.551862,1.574382 -0.0019,0.09274 0.0039,0.185967 -0.0058,0.278229 -0.02912,0.279118 -0.08952,0.456916 -0.197315,0.724168 -0.203241,0.503896 -0.473887,0.976478 -0.804594,1.407654 -0.116097,0.139072 -0.227019,0.282632 -0.348292,0.417215 -0.527955,0.585904 -1.157566,1.075666 -1.884951,1.386931 -0.394231,0.143937 -0.543595,0.215998 -0.962872,0.295808 -0.897745,0.170885 -1.824081,0.127028 -2.729293,0.06352 -0.247613,-0.03302 -0.496547,-0.05731 -0.742837,-0.09907 -0.775286,-0.131443 -1.582622,-0.366247 -2.271666,-0.753424 -0.146184,-0.08214 -0.282416,-0.180858 -0.423624,-0.271287 -0.122822,-0.09973 -0.252053,-0.192046 -0.368467,-0.299186 -0.29332,-0.269953 -0.577153,-0.614469 -0.717127,-0.993748 -0.105585,-0.286095 -0.100994,-0.46941 -0.126851,-0.769162 0.0093,-0.133668 0.0077,-0.268527 0.02776,-0.401004 0.122037,-0.80591 0.575807,-1.505355 1.080471,-2.124024 0.127343,-0.141105 0.249512,-0.287057 0.382027,-0.423314 0.47734,-0.490819 1.060218,-0.983046 1.695315,-1.254921 0.130529,-0.05588 0.268099,-0.09361 0.402148,-0.140417 0.136246,-0.03306 0.27058,-0.07533 0.408737,-0.09917 0.686899,-0.118541 1.393986,-0.03154 2.082657,0.01306 0.474875,0.05387 0.951866,0.11301 1.407094,0.265959 0.710132,0.315614 1.156478,-0.688664 0.446346,-1.004279 z" />
  <path
     style="fill:#0066ff"
     id="path200"
     d="m 48.069507,19.949972 c -0.0019,0.358739 -0.0081,0.718684 0.05562,1.073471 0.01783,0.09925 0.03104,0.201285 0.06991,0.294331 0.04896,0.117188 0.127224,0.219852 0.190836,0.329778 0.51295,0.310461 0.240244,0.231797 0.778395,0.261001 0.04217,0.0023 0.08583,-0.0033 0.126406,0.0084 0.0155,0.0045 0.01987,0.02552 0.03122,0.037 0.02709,0.0274 0.155232,0.140998 0.167788,0.152236 0.254416,0.241909 0.504462,0.425077 0.880911,0.40279 0.212445,-0.01258 0.337383,-0.08967 0.517544,-0.175564 0.141153,-0.08867 0.285988,-0.17072 0.433066,-0.248986 0.685168,-0.366669 0.16662,-1.335642 -0.518547,-0.968974 v 0 c -0.139578,0.07503 -0.27977,0.149497 -0.411612,0.237807 -0.02151,0.01305 -0.05191,0.01739 -0.06455,0.03914 -0.0061,0.01042 0.0209,0.01201 0.03156,0.01765 0.02562,0.01354 0.05435,0.0221 0.07724,0.03986 0.01075,0.0083 0.03178,0.04244 0.02001,0.03559 -0.03914,-0.02277 -0.07119,-0.05602 -0.105633,-0.08541 -0.05154,-0.04398 -0.101499,-0.08978 -0.152249,-0.134666 -0.288367,-0.235285 -0.478556,-0.377979 -0.859954,-0.44647 -0.07946,-0.01427 -0.162483,-0.02069 -0.242095,-0.0073 -0.08471,0.01428 0.601093,0.221063 0.177447,0.186912 -0.0038,0.01777 -0.0036,0.0697 -0.01143,0.05332 -0.02618,-0.05444 -0.03536,-0.115732 -0.04708,-0.174988 -0.04919,-0.248657 -0.04581,-0.499782 -0.04581,-0.751836 0,-0.05838 0,-0.116766 0,-0.175149 0,-0.77711 -1.099,-0.77711 -1.099,0 z" />
  <path
     style="fill:#0066ff"
     id="path202"
     d="m 52.162337,21.217832 c -0.01695,0.427292 0.0036,0.803579 0.35744,1.114516 0.24202,0.212663 0.445444,0.19584 0.739455,0.234052 0.193092,0.03136 0.475234,-0.07164 0.665151,-0.0085 0.01243,0.0041 0.0096,0.0248 0.01764,0.03513 0.01533,0.01964 0.03272,0.03788 0.05182,0.05387 0.04566,0.03823 0.09467,0.07227 0.142007,0.108409 0.311117,0.209096 0.566324,0.311236 0.958843,0.196747 0.382713,-0.111629 0.771516,-0.507273 1.056289,-0.772717 0.566686,-0.531758 -0.185334,-1.333173 -0.75202,-0.801415 v 0 c -0.70313,0.66523 0.166649,-0.148473 -0.464434,0.416204 -0.02969,0.02657 -0.08341,0.0463 -0.08286,0.08614 4.58e-4,0.03309 0.06222,0.02747 0.08477,0.0517 0.0064,0.0068 -0.01671,0.0083 -0.02507,0.01244 -0.03678,-0.02131 -0.07356,-0.04262 -0.110342,-0.06394 -0.123368,-0.09349 -0.312478,-0.243893 -0.443962,-0.305061 -0.346287,-0.161095 -0.659586,-0.14025 -1.024589,-0.105576 -0.170769,0.05441 0.02759,0.04565 -0.03044,0.197602 -0.01063,0.02784 -0.02802,-0.05355 -0.03373,-0.0828 -0.0096,-0.04935 -0.0096,-0.100156 -0.01178,-0.150394 -0.0017,-0.03894 1.98e-4,-0.07795 2.97e-4,-0.116924 0.07036,-0.773918 -1.02413,-0.873417 -1.094486,-0.0995 z" />
  <path
     style="fill:#0066ff"
     id="path204"
     d="m 59.719688,16.216986 c 0.01277,0.0061 0.02453,0.01511 0.03832,0.01838 0.360102,0.08536 0.723881,0.126462 1.059105,0.302538 0.06708,0.03523 0.125294,0.08523 0.187941,0.127842 0.04641,0.04542 0.102638,0.08261 0.139221,0.13626 0.03775,0.05536 0.01702,0.146008 0.0021,0.201683 -0.07063,0.26432 -0.231411,0.438567 -0.396178,0.652545 -0.143015,0.119916 -0.445831,0.392591 -0.62103,0.460095 -0.106745,0.04113 -0.227231,0.02665 -0.340846,0.03997 -0.757528,0.173353 -0.51237,1.24466 0.245158,1.071307 v 0 c 0.237036,-0.06692 0.485722,-0.101429 0.711106,-0.200754 0.305125,-0.134467 0.660974,-0.5061 0.893067,-0.722374 0.251977,-0.35698 0.424609,-0.536651 0.54315,-0.971212 0.133894,-0.490841 0.02552,-0.963443 -0.301484,-1.348241 -0.08279,-0.09742 -0.193686,-0.166943 -0.29053,-0.250415 -0.119975,-0.07188 -0.234696,-0.153365 -0.359925,-0.215645 -0.330298,-0.164267 -0.702628,-0.252068 -1.062001,-0.324002 -0.0978,-0.01958 -0.195498,-0.04101 -0.29456,-0.05264 -0.09581,-0.01125 -0.192646,-0.01057 -0.288969,-0.01586 -0.771109,0.09639 -0.634795,1.186902 0.136315,1.090513 z" />
  <path
     style="fill:#0066ff"
     id="path206"
     d="m 47.914607,14.200103 c -0.295265,-0.06822 -0.594823,-0.122092 -0.896767,-0.150269 -0.09985,-0.0093 -0.199909,-0.02089 -0.300186,-0.01992 -0.116995,0.0011 -0.233346,0.0175 -0.350018,0.02625 -0.109151,0.02595 -0.22117,0.04192 -0.327451,0.07787 -0.412243,0.13941 -0.733425,0.43171 -0.976502,0.785485 -0.05472,0.07964 -0.100984,0.164762 -0.151476,0.247143 -0.297826,0.554139 -0.415631,1.173481 -0.482468,1.792373 -0.02463,0.411539 0.01011,0.829406 0.176311,1.2116 0.09282,0.213463 0.146849,0.271883 0.276059,0.455809 0.338363,0.39503 0.807405,0.61793 1.280231,0.808844 0.721472,0.288755 1.129834,-0.731559 0.408362,-1.020315 v 0 c -0.282008,-0.111565 -0.567411,-0.234023 -0.799308,-0.434263 -0.04221,-0.05429 -0.102277,-0.125628 -0.13349,-0.188333 -0.111367,-0.223729 -0.125952,-0.474305 -0.115066,-0.7196 0.04552,-0.460032 0.126591,-0.923826 0.332629,-1.342144 0.10551,-0.184137 0.25434,-0.445449 0.461181,-0.532941 0.04963,-0.02099 0.103031,-0.03161 0.154546,-0.04741 0.05885,-0.0079 0.117194,-0.02232 0.176555,-0.02359 0.08074,-0.0017 0.161387,0.0076 0.24184,0.01463 0.265008,0.02321 0.527736,0.07142 0.786611,0.131607 0.758605,0.168579 0.997012,-0.90425 0.238407,-1.072829 z" />
  <path
     style="fill:#0066ff"
     id="path208"
     d="m 51.034228,15.031102 c 0.111661,-0.192006 0.218604,-0.388914 0.361681,-0.560256 0.100998,-0.12095 0.140856,-0.145622 0.260406,-0.246299 0.118535,-0.08713 0.245334,-0.158948 0.388892,-0.194367 0.0314,-0.0077 0.06367,-0.02152 0.09562,-0.01647 0.01454,0.0023 -0.02136,0.02284 -0.03576,0.02593 -0.0297,0.0064 -0.06075,8.42e-4 -0.09113,0.0013 -0.0082,0.004 -0.02585,0.0029 -0.02453,0.01185 0.0043,0.02929 0.02523,0.05358 0.03813,0.08023 0.02207,0.04562 0.04635,0.09021 0.06676,0.136603 0.07519,0.170903 0.129519,0.348326 0.181327,0.527268 0.06725,0.274439 0.106478,0.554156 0.126401,0.835619 0.05908,0.774861 1.154896,0.691315 1.09582,-0.08355 v 0 c -0.02873,-0.358071 -0.07618,-0.714537 -0.16803,-1.062687 -0.09451,-0.316575 -0.195033,-0.637592 -0.363399,-0.924491 -0.04859,-0.0828 -0.09549,-0.167832 -0.157431,-0.241185 -0.0707,-0.08373 -0.158578,-0.151299 -0.237867,-0.226949 -0.113757,-0.04862 -0.220694,-0.118197 -0.341272,-0.145869 -0.449929,-0.103254 -0.953733,0.198269 -1.29757,0.450024 -0.07481,0.06704 -0.153417,0.130076 -0.224432,0.201127 -0.258376,0.258506 -0.449783,0.570508 -0.627816,0.886954 -0.385555,0.674721 0.568644,1.219977 0.954199,0.545257 z" />
  <path
     style="fill:#0066ff"
     id="path210"
     d="m 55.84931,15.389224 c 0.266426,-0.257527 0.54458,-0.328961 0.898564,-0.397771 0.17531,-0.01215 0.379684,-0.05357 0.545045,0.03503 0.0125,0.0067 0.06484,0.05428 0.04958,0.08369 -0.0059,0.01135 -0.02301,0.01117 -0.03451,0.01676 -0.01366,0.351347 -0.09268,0.691157 -0.219509,1.01786 -0.01548,0.02204 -0.03095,0.04408 -0.04643,0.06611 -0.388127,0.673244 0.563984,1.222139 0.952111,0.548894 v 0 c 0.04084,-0.07566 0.08169,-0.151312 0.122534,-0.226969 0.167137,-0.451415 0.316131,-0.986688 0.272441,-1.47227 -0.01107,-0.123011 -0.04658,-0.242585 -0.06987,-0.363878 -0.06462,-0.119254 -0.111202,-0.250216 -0.193849,-0.357763 -0.06977,-0.09079 -0.161387,-0.164777 -0.256595,-0.228394 -0.399979,-0.267261 -0.889746,-0.258041 -1.345277,-0.194931 -0.118244,0.02578 -0.238157,0.04482 -0.35473,0.07733 -0.439516,0.12256 -0.839327,0.349346 -1.153931,0.681081 -0.505737,0.590026 0.328686,1.305246 0.834423,0.71522 z" />
  <path
     style="fill:#0066ff"
     id="path212"
     d="m 52.752969,17.702723 c 0.663416,-0.0027 1.326608,-0.0014 1.989831,0.01538 0.251808,0.007 0.503571,0.01551 0.755336,0.0239 0.776679,0.02589 0.813288,-1.072503 0.03661,-1.09839 v 0 c -0.254744,-0.0085 -0.509486,-0.01709 -0.764275,-0.02416 -0.672446,-0.0169 -1.344862,-0.01857 -2.017501,-0.01573 -0.777111,0 -0.777111,1.099 0,1.099 z" />
  <path
     style="fill:#0066ff"
     id="path214"
     d="m 51.486182,17.956847 c 0.316704,0.346549 0.672531,0.654861 1.036074,0.950793 0.33441,0.286964 0.715573,0.508324 1.089321,0.738103 0.344191,0.208979 0.5096,0.179699 0.904159,-0.04942 0.0888,-0.05157 0.139044,-0.151637 0.200387,-0.233992 0.07955,-0.106803 0.200397,-0.330853 0.265594,-0.447075 0.118653,-0.217923 0.235228,-0.436796 0.357092,-0.652939 0.381274,-0.67715 -0.57636,-1.216351 -0.957633,-0.539202 v 0 c -0.122211,0.217314 -0.240114,0.436814 -0.358838,0.656051 -0.05871,0.105558 -0.124797,0.207125 -0.178872,0.31513 -0.0061,0.0122 -0.02289,0.03949 -0.0093,0.03986 0.110164,0.003 0.21944,-0.02069 0.32916,-0.03103 0.03554,0.01838 0.06788,0.04515 0.10662,0.05513 0.0313,0.0081 -0.0557,-0.03279 -0.08355,-0.04919 -0.333,-0.204069 -0.673918,-0.39892 -0.97146,-0.654634 -0.334965,-0.271149 -0.660985,-0.555741 -0.951685,-0.87471 -0.5495,-0.5495 -1.32661,0.22761 -0.77711,0.77711 z" />
</svg>
