<?xml version="1.0" encoding="UTF-8" standalone="no"?>
<svg
   id="Layer_1"
   viewBox="0 0 66.1 24.7"
   version="1.1"
   sodipodi:docname="90fb0caa5319c39b24946476dd32bb0d.svg"
   inkscape:version="1.2.2 (732a01da63, 2022-12-09)"
   xmlns:inkscape="http://www.inkscape.org/namespaces/inkscape"
   xmlns:sodipodi="http://sodipodi.sourceforge.net/DTD/sodipodi-0.dtd"
   xmlns="http://www.w3.org/2000/svg"
   xmlns:svg="http://www.w3.org/2000/svg">
  <defs
     id="defs27" />
  <sodipodi:namedview
     id="namedview25"
     pagecolor="#ffffff"
     bordercolor="#000000"
     borderopacity="0.25"
     inkscape:showpageshadow="2"
     inkscape:pageopacity="0.0"
     inkscape:pagecheckerboard="0"
     inkscape:deskcolor="#d1d1d1"
     showgrid="false"
     inkscape:zoom="18.305598"
     inkscape:cx="33.049999"
     inkscape:cy="12.34595"
     inkscape:window-width="1920"
     inkscape:window-height="1017"
     inkscape:window-x="-8"
     inkscape:window-y="-8"
     inkscape:window-maximized="1"
     inkscape:current-layer="Layer_1" />
  <style
     id="style2">.st0{fill:#fff}.st1{fill:#f9a83a}</style>
  <switch
     id="switch22">
    <g
       id="g20">
      <g
         id="g18">
        <g
           id="g6">
          <path
             d="M60.2 24.1c-.8.1-1.3.1-1.5.2-.4.2-1.3.4-2.4.4-1.4 0-2.7-.5-3.8-1.3h-.8c-.3 0-.5 0-.8-.1-1.1.4-2.1.4-2.7.4H48c-1.4.1-2.8-.2-4-.8-.6.2-1.1.3-1.7.3l-3.7.1c-1.7 0-3.2-.6-4.4-1.7-.5 0-1-.1-1.4-.2-.6.7-1.4 1.3-2.4 1.8-1.9.9-4 1-6 .2-.2-.1-.5-.2-.7-.3l-2.3.3h-.7c-.3.1-.5.3-.7.4-1.5.7-2.9.7-3.5.7H16c-1.7 0-3.4-.5-4.7-1.4-.4.1-.9.2-1.3.2-.9.6-2 1-3.2 1.1h-.4c-3.3 0-6-2.5-6.3-5.8v-.1c0-.5-.1-1.6 0-2.8 0-.6.1-1.5.1-1.7 0-.8.2-1.6.5-2.4-.2-.8-.1-1.6 0-2.4v-.3c.1-.7.3-2.1 1-3.5C3 3 5.4 1.5 8.1 1.5 9 1 9.9.8 10.9.8h.3c2 .1 3.8 1.1 4.9 2.7.9-.8 2-1.3 3.2-1.5 2.4-.3 4.4-.4 6.1-.1.9-.8 2.1-1.4 3.3-1.5l2.6-.4h.8c1.5 0 3 .6 4.2 1.6h.2l3.8-.1c1.6 0 3-.1 3.3-.1h.5c1.4 0 2.9.5 4 1.4 1.1-.8 2.4-1.2 3.8-1.2h1.3c1-.6 2.1-1 3.3-1l3.2-.1h.1c3.4 0 6.2 2.8 6.3 6.2 0 1.6-.5 3-1.5 4.2v2.9c.9 1 1.4 2.3 1.5 3.7.2 3.4-2.4 6.3-5.9 6.6z"
             class="st0"
             id="path4" />
        </g>
        <path
           d="M60 20.5c-1.3.1-2.1.2-2.3.3l-.1.1c-.3.1-.7.3-1.2.3-.6 0-1.3-.2-1.8-.7-.2-.2-.4-.4-.5-.6h-2.3c-.4 0-.8-.1-1.1-.3-.1.1-.3.1-.4.2-.8.4-1.5.4-2 .4h-.5c-1.5 0-2.7-.5-3.5-1.4-.5.5-1.2.8-1.9.8l-3.7.1c-1.3 0-2.5-1-2.7-2.2-.5.3-1 .5-1.6.5-.6 0-1.2-.2-1.7-.5-.1-.1-.2-.2-.3-.2-.3.2-.7.2-1.1.2H31c-.4 1.2-1.1 2-2.2 2.5-.5.2-1.1.4-1.6.4s-1.1-.1-1.6-.3c-.5-.2-.9-.5-1.2-.8-.2.1-.4.1-.6.2l-2.9.4h-.4c-.3 0-.5 0-.8-.1-.4.4-.9.6-1.3.8-.8.4-1.5.4-2 .4h-.5c-1.8 0-3.2-.8-4-1.9-.8.5-1.8.8-2.7.8h-.6c0 .1-.1.1-.1.2-.5.5-1.2.9-1.9.9h-.2c-1.4 0-2.6-1.1-2.7-2.6v-.1c0-.5-.1-1.4 0-2.4 0-.7.1-1.8.1-1.8 0-.7.3-1.3.7-1.8-.4-.8-.5-1.7-.3-2.7v-.2c.1-.6.2-1.5.6-2.4.7-1.3 2-2 3.5-2H9c.5-.4 1.1-.7 1.8-.7 1.5 0 2.7 1.3 2.7 2.8v1.1c.5-.2 1.1-.3 1.7-.3.3 0 .5 0 .8.1.4-.5 1-.8 1.6-.9.1-.2.2-.3.3-.5.4-.6 1.1-1 1.8-1.1.6-.1 1.8-.2 3.2-.2 1.6 0 2.9.2 3.9.7.3-1.1 1.1-1.9 2.3-2.1l2.6-.4h.4c.8 0 1.5.3 2 .9.2.2.5.6.6.9l.1.3c.5-.3 1-.5 1.6-.5l3.9-.1c1.9 0 3.6-.1 3.6-.2h.2c.7 0 1.5.3 2 .8.4.4.7.9.8 1.5h.2c.3 0 .5 0 .8.1.4-.5 1-.8 1.6-.9.5-.7 1.4-1.3 2.4-1.3h2.6c.5-.6 1.2-1 2.1-1h3.2c1.5 0 2.7 1.2 2.8 2.7 0 1.1-.6 2.1-1.5 2.5v6.1c.8.4 1.4 1.3 1.5 2.3.1 1.5-1.1 2.8-2.6 2.9z"
           class="st1"
           id="path8" />
        <path
           d="M32.3 8.5l-.7 3.6 2-.3z"
           class="st1"
           id="path10" />
        <path
           d="M8.4 12c-.7-.1-1.1-.6-.9-2v-.2c.2-1.2.3-1.5.9-1.5.2 0 .4.1.6.3.2.2.6.5.8 1.1.2.4.2.7.3 1v.4c0 .2.2.4.5.5.3.1.6-.2.7-.5 0 0 .2-3.8.2-3.9 0-.3-.3-.6-.6-.6s-.6.3-.6.6v1.1c-.5-.5-1.1-1-1.8-1C6.6 7 6.4 8.7 6.3 9.7v.2c-.2 1.9.4 3.1 1.9 3.4 1.6.3 2.7.6 2.7 1.6 0 .4-.2.8-.6 1.1-.4.4-1 .5-1.6.4-.2 0-.3-.1-.5-.1-.2-.1-.8-.4-1-.8-.1-.4-.2-.9-.2-1.2v-.2c0-.3-.3-.6-.6-.6s-.6.3-.6.6c0 0 0 1.2-.1 1.9-.1 1.2 0 2.1 0 2.2 0 .3.3.6.6.6s.6-.3.6-.6v-1.1c.4.3 1 .6 1.7.7.9.2 1.8-.1 2.5-.7.6-.5 1-1.3 1-2 0-2.5-2.5-2.9-3.7-3.1M25.2 10.3c-.1.1-.2.2-.4.3-.1.1-.4.2-.5.2l-.3.1c-.4.2-1 .3-1.6.4V8.5c1.6 0 3 .1 3.3.6v.2c0 .2-.2.6-.5 1m3.5 5.4c-.3-.1-.7.1-.8.4-.2.7-.4.7-.5.8-.1.1-.3 0-.6-.1 0 0-.1-.2-.2-.3-.1-.2-.2-1-.2-1.5 0-1.8-.4-2.8-.9-3.3.3-.2.6-.5.6-.5.7-1 .9-1.8.5-2.5-1-1.7-5.3-1.2-6.7-1-.3 0-.6.4-.5.7 0 .3.4.6.7.5.3 0 .6-.1.9-.1v2.8h-.3c-.3 0-.6.3-.6.6s.3.6.6.6h.3v3.5l-.8.1c-.3 0-.6.4-.5.7 0 .3.4.6.7.5l2.9-.4c.3 0 .6-.4.5-.7 0-.3-.4-.6-.7-.5l-.9.1v-3.5c.6-.1 1.1-.2 1.6-.4h.2c.2 0 .4.1.5.3.2.3.4.9.5 2.4 0 .3.1 1.5.3 2 .1.2.4.7.9.9.4.1.9.3 1.5 0 .5-.3.9-.6 1.1-1.5.4-.2.2-.5-.1-.6M50.5 13.8c-.3 0-.6.3-.6.6v.8c0 .3-.1.7-.2.8-.1.2-.2.3-.4.5-.1.1-.3.2-.5.3-.2.1-.3.1-.7.1h-.4c-1.6.1-1.8-1.2-1.8-1.5v-2.6c.1-1 .3-1.7.7-2 .3-.2.7-.1 1.4.1.8.3 1.3 1.2 1.4 1.2.1.2.4.3.7.3.3-.1.4-.3.4-.6V9.1c0-.3-.3-.6-.6-.6s-.6.3-.6.6v1.1c-.2-.2-.5-.3-.8-.5-.3-.2-1.5-.7-2.4-.1-.7.5-1.2 1.4-1.3 2.9v2.8c.1.9.8 2.7 3 2.7h.3c.4 0 .8 0 1.2-.2.3-.1.6-.3.9-.6.2-.2.3-.4.5-.7.2-.4.3-1.1.4-1.3v-1c0-.2-.3-.4-.6-.4M60.4 17.8c0-.3-.3-.6-.6-.6-.2 0-.5 0-.8.1 0-1 0-3.1-.1-9.9h.9c.3 0 .6-.3.6-.6s-.3-.6-.6-.6l-3.2.1c-.3 0-.6.3-.6.6s.3.6.6.6h1v4.2l-3.6.6V8.5h1c.3 0 .6-.3.6-.6s-.3-.6-.6-.6h-3.2c-.3 0-.6.3-.6.6s.3.6.6.6h1v8.1h-1c-.3 0-.6.3-.6.6s.3.6.6.6l3.3.1c.3 0 .6-.3.6-.6s-.3-.6-.6-.6h-1v-3.1l3.6-.6v4.6c-.8.2-1.4.2-1.7.6-.2.2-.2.6.1.8.2.2.5.1.9 0 .3-.2 1.5-.3 2.9-.4.3-.2.5-.5.5-.8"
           class="st0"
           id="path12" />
        <path
           d="M31.6 12.1l.7-3.6 1.3 3.3-2 .3zm5.3 1c-.2.1-.5.2-1.1.5l-.8-1.9-2.3-5.5c0-.1-.1-.3-.2-.3-.1-.1-.3-.2-.5-.2l-2.6.3c-.3 0-.6.3-.5.7 0 .3.3.6.7.5 0 0 1-.1 1.8-.2-.2 1.1-1.1 5.6-1.4 7l-1.8-.1c-.3 0-.6.2-.6.6 0 .3.2.6.6.6l3 .1c.3 0 .6-.2.6-.6 0-.3-.2-.6-.6-.6l.1-.9 2.8-.5.6 1.5c-.5.3-.7.4-1 .7-.2.3-.1.6.1.8.3.2.7.1.9-.1.3-.4 1.4-.9 2.5-1.3.3-.1.5-.5.4-.8-.1-.2-.4-.4-.7-.3"
           class="st0"
           id="path14" />
        <path
           d="M44.1 7s-1.8.1-3.8.2l-3.9.1c-.2 0-.3.1-.5.2-.1.1-.2.3-.1.5l.5 3c0 .3.4.6.7.5.3 0 .5-.3.5-.6 0 0-.2-1.6-.4-2.4h2.6v7.9h-1.3c-.3 0-.6.3-.6.6s.3.6.6.6l3.7-.1c.3 0 .6-.3.6-.6s-.3-.6-.6-.6h-1.2V8.4c1 0 1.9-.1 2.5-.1v1.2c0 .6.1.8.1.9.2.3.5.4.8.2.2-.1.3-.4.3-.6 0 0 0-1.4.1-2.2 0-.2 0-.3-.2-.5 0-.2-.2-.3-.4-.3M18.6 14.4c-.3 0-.6.3-.6.6V15.9c0 .2-.1.6-.2.8-.1.2-.2.3-.4.5-.1.1-.3.2-.5.3-.2.1-.3.1-.7.1h-.4c-1.6 0-1.8-1.2-1.8-1.5v-2.6c.1-1 .3-1.7.7-2 .3-.2.7-.1 1.4.1.8.3 1.4 1.2 1.4 1.2.1.2.4.3.7.3.3-.1.4-.3.4-.6V9.8c0-.3-.3-.6-.6-.6s-.6.3-.6.6v1.1c-.2-.2-.5-.4-.8-.5-.4-.2-1.5-.6-2.5-.1-.7.5-1.2 1.4-1.3 2.9V16c.1.9.8 2.7 3.1 2.7h.3c.4 0 .8 0 1.2-.2.3-.1.6-.3.9-.6.2-.2.3-.4.5-.7.2-.4.3-1.1.4-1.3v-1c0-.2-.3-.5-.6-.5"
           class="st0"
           id="path16" />
      </g>
    </g>
  </switch>
  <path
     style="fill:#0000ff"
     id="path489"
     d="m 3.286502,17.705543 c -0.3004681,0.113819 -0.5322473,0.390243 -0.6469114,0.687187 -0.028175,0.07296 -0.038923,0.151509 -0.058384,0.227264 -0.00376,0.07524 -0.017391,0.15064 -0.011278,0.225728 0.016552,0.203313 0.1118242,0.400352 0.2902742,0.508212 0.132228,0.07992 0.2061697,0.07156 0.3522629,0.08628 0.055901,-0.01199 0.1138943,-0.01664 0.1677035,-0.03596 0.2139122,-0.0768 0.3633434,-0.253786 0.4382579,-0.463234 0.018538,-0.05183 0.028076,-0.106448 0.042114,-0.159672 0.038795,-0.294241 -0.05665,-0.53624 -0.2101594,-0.7791 -3.778e-4,-5.98e-4 -0.00122,-6.4e-5 -8.453e-4,5.34e-4 v 0 c 0.1533574,0.242611 0.2487597,0.48436 0.2100378,0.778311 -0.014019,0.05317 -0.023544,0.107734 -0.042057,0.159512 -0.074788,0.209171 -0.2239583,0.385923 -0.4375577,0.462671 -0.053708,0.0193 -0.1115957,0.02396 -0.1673935,0.03594 -0.1458413,-0.01467 -0.2196965,-0.0063 -0.3517107,-0.08605 -0.1782172,-0.107641 -0.2733794,-0.3044 -0.2899278,-0.507404 -0.00612,-0.07502 0.0075,-0.150353 0.011248,-0.225529 0.019434,-0.07568 0.030159,-0.154155 0.058302,-0.22705 0.1145301,-0.29665 0.3460433,-0.572853 0.6461667,-0.68666 7e-4,-10e-5 5.585e-4,-0.0011 -1.415e-4,-9.9e-4 z" />
  <path
     style="fill:#0000ff"
     id="path570"
     d="m 7.4035911,-10.645077 c -0.071473,-0.323539 -0.028314,-0.141711 -0.1344872,-0.54427 -0.017861,-0.06769 -0.1135842,-0.04243 -0.095724,0.02526 v 0 c 0.1051904,0.398449 0.062356,0.218135 0.1334083,0.539754 0.014668,0.06845 0.1114702,0.04771 0.096802,-0.02074 z" />
  <path
     style="fill:#0000ff"
     id="path624"
     d="m 7.3374916,18.633048 c 0.1377786,0.87568 0.3636418,1.733403 0.5814126,2.591626 0.1161473,0.546556 0.2837164,1.0898 0.3414416,1.64782 0.00461,0.04453 -0.029907,0.169089 -0.00175,0.134287 0.030126,-0.03724 0.00608,-0.0956 0.00913,-0.143403 0.2789705,-0.08065 0.5579411,-0.161291 0.8369116,-0.241936 0.010652,-0.0083 0.033347,-0.01144 0.031957,-0.02486 -0.00931,-0.08992 -0.041255,-0.176033 -0.061882,-0.26405 -0.020392,-0.135679 -0.05133,-0.270188 -0.061174,-0.407038 -0.03113,-0.432763 0.00614,-0.580144 0.054676,-1.014659 0.1020078,-0.483341 0.1795377,-1.054857 0.567579,-1.409693 0.1144817,-0.104686 0.1994283,-0.117694 0.3385532,-0.163735 0.074463,-1.53e-4 0.1830124,-0.01585 0.2502224,0.03813 0.01868,0.015 0.01344,0.0461 0.02266,0.06822 0.04424,0.10622 0.0993,0.188445 0.130653,0.30374 0.02027,0.07455 0.02418,0.152606 0.03627,0.228909 0.01816,0.301683 -0.01021,0.651658 -0.266771,0.857701 -0.05901,0.04739 -0.3195658,0.155807 -0.3682927,0.177308 -0.2953981,0.05644 -0.1452648,0.03799 -0.4505212,0.05436 -0.7743899,0.06497 -0.6825129,1.16012 0.091877,1.095153 v 0 c 0.5537706,-0.05605 0.2731721,-0.0048 0.8403099,-0.161683 0.332323,-0.170633 0.502727,-0.224683 0.770774,-0.51238 0.320844,-0.344365 0.468946,-0.827334 0.484487,-1.288605 0.0052,-0.154747 -0.01985,-0.309032 -0.02977,-0.463549 -0.09816,-0.380451 -0.102467,-0.547625 -0.333143,-0.870851 -0.295194,-0.41363 -0.679119,-0.640238 -1.1949902,-0.614554 -0.1432866,0.0071 -0.2818509,0.05374 -0.4227763,0.08061 -0.3659707,0.175683 -0.4755402,0.188932 -0.7672067,0.496741 -0.5046907,0.532623 -0.6697704,1.274044 -0.7930212,1.970598 -0.021323,0.218213 -0.055975,0.435532 -0.063968,0.654638 -0.015789,0.432819 0.011954,0.738275 0.098807,1.152791 0.029073,0.138755 0.058937,0.27865 0.1105688,0.410683 0.050911,0.130188 0.058886,0.340122 0.1951813,0.371178 0.316732,0.07217 0.6458486,-0.07064 0.9687729,-0.105963 0.024285,-0.09957 0.061963,-0.196803 0.072854,-0.298712 0.017752,-0.166115 -0.038377,-0.471594 -0.065109,-0.622264 C 9.20841,21.887311 9.0984966,21.419991 8.9841428,20.954363 8.7738697,20.125751 8.5545201,19.297873 8.4215385,18.452373 8.2937823,17.685836 7.2097354,17.866511 7.3374916,18.633048 Z" />
  <path
     style="fill:#0000ff"
     id="path626"
     d="m 12.925194,19.473859 c -0.395586,0.12824 -0.716832,0.396921 -0.932664,0.752812 -0.07531,0.124181 -0.143934,0.25489 -0.18662,0.393709 -0.05093,0.165642 -0.06119,0.341147 -0.09179,0.51172 0.01451,0.169799 0.004,0.343635 0.04354,0.509397 0.122226,0.512075 0.474778,1.059496 1.051176,1.131766 0.529517,0.06639 0.701389,-0.157433 1.082827,-0.428915 0.682306,-0.848107 0.01019,0.01897 0.535655,-0.740965 0.01528,-0.02209 0.14127,-0.220562 0.232092,-0.224643 0.02086,-9.38e-4 0.0028,0.04695 -0.01142,0.09415 0.565907,0.306377 1.091539,0.680479 1.634665,1.024646 0.287788,0.187051 0.58974,0.348999 0.894941,0.505079 0.692478,0.352668 1.191226,-0.626644 0.498748,-0.979312 v 0 c -0.275183,-0.139458 -0.546538,-0.285825 -0.805546,-0.454146 -0.328491,-0.208049 -0.651253,-0.424264 -0.978011,-0.634905 -0.173808,-0.112044 -0.478583,-0.305884 -0.668148,-0.394584 -0.121915,-0.05705 -0.250652,-0.0982 -0.375978,-0.147301 -0.158273,-0.01079 -0.31759,-0.05348 -0.474818,-0.03236 -0.602282,0.08088 -0.881811,0.69193 -1.179532,1.134934 -0.03214,0.0431 -0.07777,0.07887 -0.09642,0.129297 -0.02049,0.05539 0.08149,0.196429 -0.0093,0.17769 -0.05793,-0.01196 -0.09561,-0.07161 -0.133147,-0.117321 -0.131138,-0.159698 -0.111986,-0.201147 -0.152404,-0.40428 0.0023,-0.07101 -0.0077,-0.143486 0.0069,-0.213029 0.044,-0.210448 0.18721,-0.428695 0.381803,-0.527246 0.753908,-0.188477 0.487361,-1.254663 -0.266547,-1.066187 z" />
  <path
     style="fill:#0000ff"
     id="path628"
     d="m 17.052345,21.127712 c 0.502974,0.215305 1.00269,0.440185 1.483519,0.701598 0.144291,0.108317 0.328731,0.197809 0.420867,0.360674 0.466886,0.621223 1.345428,-0.03905 0.878542,-0.660277 v 0 c -0.04584,-0.05733 -0.08765,-0.11813 -0.137506,-0.172001 -0.184226,-0.19905 -0.411645,-0.350777 -0.638998,-0.495025 -0.50417,-0.271582 -1.024526,-0.511774 -1.551654,-0.735462 -0.707456,-0.321571 -1.162225,0.678922 -0.45477,1.000493 z" />
  <path
     style="fill:#0000ff"
     id="path630"
     d="m 18.270455,20.021146 c -0.292754,0.504454 -0.546634,1.029989 -0.793142,1.55815 -0.106245,0.221619 -0.208913,0.444893 -0.31459,0.666778 -0.334076,0.701637 0.658187,1.174092 0.992264,0.472455 v 0 c 0.106858,-0.224486 0.210838,-0.450298 0.318243,-0.674527 0.236687,-0.507382 0.480358,-1.012288 0.762033,-1.496597 0.37212,-0.682222 -0.592687,-1.208481 -0.964808,-0.526259 z" />
  <path
     style="fill:#0000ff"
     id="path632"
     d="m 20.221234,20.062708 c 0.03965,0.492524 0.06047,0.986106 0.0763,1.479908 0.0047,0.284734 0.02644,0.569715 -0.0011,0.853745 -0.06586,0.774315 1.029191,0.867448 1.095046,0.09313 v 0 c 0.02549,-0.327246 0.01717,-0.654262 0.0045,-0.982152 -0.01718,-0.533934 -0.03879,-1.067844 -0.08677,-1.600057 -0.1099,-0.7693 -1.197855,-0.613878 -1.087955,0.155422 z" />
  <path
     style="fill:#0000ff"
     id="path634"
     d="m 20.202939,21.666041 c 0.380154,-0.210606 0.769761,-0.412848 1.184156,-0.548407 0.08882,-0.02906 0.179989,-0.0504 0.269983,-0.0756 0.746984,-0.214279 0.443947,-1.270674 -0.303037,-1.056394 v 0 c -0.117952,0.03445 -0.23727,0.06453 -0.353857,0.103354 -0.480285,0.159932 -0.933246,0.393719 -1.373228,0.641074 -0.661832,0.407282 -0.08585,1.343254 0.575983,0.935973 z" />
  <path
     style="fill:#0000ff"
     id="path636"
     d="m 22.912074,19.73534 c -0.365428,0.326581 -0.685785,0.831953 -0.762282,1.320621 -0.02368,0.151261 -0.01107,0.306007 -0.0166,0.45901 0.02969,0.137215 0.03185,0.283451 0.08908,0.411643 0.06976,0.156225 0.163116,0.306895 0.285246,0.426714 0.218242,0.214113 0.584088,0.367789 0.895017,0.333864 0.505373,-0.05514 0.571769,-0.227157 0.902168,-0.55325 0.299682,-0.522651 0.30555,-0.934366 0.323182,-1.510019 0.01861,-0.776888 -1.080073,-0.803209 -1.098685,-0.02632 v 0 c -0.0041,0.273761 -0.0065,0.547713 -0.05634,0.818118 -0.01218,0.03555 -0.02436,0.07111 -0.03655,0.106659 0.0093,0.02252 0.03198,0.0435 0.02799,0.06755 -0.0034,0.02082 -0.02797,0.03273 -0.04633,0.04313 -0.0194,0.01098 -0.042,0.01587 -0.06402,0.01931 -0.114194,0.01785 -0.07307,-0.01493 -0.121815,-0.147595 -0.0074,-0.0529 -0.02626,-0.105428 -0.02233,-0.158707 0.02144,-0.29066 0.214095,-0.592368 0.425965,-0.783646 0.584836,-0.511731 -0.138861,-1.338812 -0.723696,-0.827082 z" />
  <path
     style="fill:#0000ff"
     id="path638"
     d="m 24.791258,20.268417 c -0.04765,0.35424 -0.189219,1.013556 0.09373,1.297584 0.134435,0.134946 0.330496,0.189487 0.495745,0.284231 0.122261,0.0037 0.244471,0.01246 0.366783,0.0112 0.27468,-0.0028 0.604226,-0.07904 0.846774,0.09981 0.03356,0.02474 0.05703,0.06083 0.08555,0.09125 0.119121,0.161596 0.06251,0.07712 0.169181,0.253863 0.422356,0.652316 1.34487,0.05501 0.922513,-0.597301 v 0 c -0.237508,-0.354044 -0.101179,-0.17766 -0.416227,-0.523479 -0.112574,-0.07952 -0.216224,-0.173476 -0.337722,-0.238544 -0.327065,-0.17516 -0.694927,-0.207387 -1.057756,-0.200211 -0.231947,0.0046 -0.176551,-0.01001 -0.303831,0.03944 0.09929,0.121763 0.203056,0.170347 0.169122,0.330516 -0.0072,0.03421 -0.01434,-0.069 -0.01404,-0.103965 0.0016,-0.193622 0.04216,-0.38597 0.0664,-0.577285 0.118165,-0.768074 -0.968056,-0.935185 -1.086221,-0.167111 z" />
  <path
     style="fill:#0000ff"
     id="path640"
     d="m 28.133589,19.311977 c -0.09924,0.326597 -0.214706,0.648055 -0.316959,0.973863 -0.232512,0.741511 0.816143,1.070332 1.048655,0.328821 v 0 c 0.108522,-0.346426 0.233882,-0.687388 0.334491,-1.036137 0.188477,-0.753908 -0.87771,-1.020455 -1.066187,-0.266547 z" />
  <path
     style="fill:#0000ff"
     id="path642"
     d="m 29.938132,19.261689 c -0.359579,0.265694 -0.580057,0.661402 -0.470251,1.123792 0.06637,0.27949 0.230204,0.433065 0.402793,0.63685 0.109428,0.124651 0.243771,0.222762 0.361942,0.338034 0.03065,0.0299 0.06503,0.0582 0.08571,0.09569 0.0081,0.01473 -0.03704,-0.0076 -0.04525,-0.02233 -0.05314,-0.09509 -0.05698,-0.144983 -0.07173,-0.235224 -0.08548,0.01654 -0.03298,0.002 -0.151659,0.06082 -0.673708,0.38732 -0.125955,1.340088 0.547754,0.952768 v 0 c 0.352336,-0.214217 0.179006,-0.08593 0.512311,-0.395039 0.06142,-0.11837 0.155993,-0.224783 0.184246,-0.35511 0.124797,-0.575657 -0.238549,-0.838496 -0.601965,-1.169788 -0.03275,-0.03295 -0.05861,-0.07461 -0.09824,-0.09884 -0.03861,-0.0236 -0.06158,0.0666 -0.09589,0.09612 -0.0071,0.0061 -0.02126,-0.0075 -0.02243,-0.01672 -0.002,-0.01572 0.0044,-0.03309 0.01463,-0.04522 0.02186,-0.02605 0.05218,-0.04365 0.07826,-0.06547 0.636634,-0.445643 0.0064,-1.345979 -0.630235,-0.900335 z" />
  <path
     style="fill:#0000ff"
     id="path644"
     d="m 35.245021,21.358194 c 0.0198,-0.06475 0.03859,-0.15937 0.09702,-0.205012 0.04825,-0.03769 0.178682,0.05538 0.215178,0.06769 0.06319,0.02132 0.128805,0.03466 0.193208,0.052 0.446123,0.08415 0.795751,0.02203 1.22612,-0.10015 0.106834,-0.03033 0.340088,-0.203522 0.471801,-0.06885 0.02177,0.02226 0.02011,0.05894 0.03017,0.08841 0.184069,0.264284 0.283826,0.566428 0.374358,0.871738 0.227036,0.743206 1.278088,0.422128 1.051051,-0.321078 v 0 C 38.7821,21.352533 38.656422,20.954037 38.402453,20.62396 c -0.103809,-0.134919 -0.234612,-0.246729 -0.351919,-0.370093 -0.172688,-0.08193 -0.331951,-0.202251 -0.518065,-0.245781 -0.171572,-0.04013 -0.353714,-0.02046 -0.528607,9.78e-4 -0.108418,0.01329 -0.207176,0.06934 -0.311407,0.102006 -0.23298,0.07301 -0.44928,0.137245 -0.695613,0.09078 -0.306115,-0.06421 -0.527614,-0.138854 -0.853459,-0.07144 -0.572002,0.118348 -0.868175,0.524748 -0.984582,1.060671 -0.118165,0.768074 0.968055,0.935185 1.08622,0.167111 z" />
  <path
     style="fill:#0000ff"
     id="path646"
     d="m 41.144415,20.179082 c -0.198209,0.166166 -0.340652,0.264462 -0.490347,0.488885 -0.284333,0.426272 -0.440906,0.951334 -0.262879,1.456545 0.05946,0.168729 0.183648,0.307069 0.275472,0.460603 0.176953,0.101517 0.332521,0.256807 0.530861,0.30455 0.399302,0.09612 0.842847,-0.04626 1.143944,-0.310177 0.158231,-0.138696 0.277789,-0.319759 0.381891,-0.502615 0.164358,-0.288695 0.227174,-0.640319 0.302714,-0.958387 0.02286,-0.116291 0.04573,-0.232581 0.06859,-0.348872 0.149304,-0.762633 -0.929222,-0.97378 -1.078526,-0.211147 v 0 c -0.02041,0.104735 -0.04082,0.209471 -0.06122,0.314207 -0.07051,0.322627 -0.05859,0.304234 -0.153142,0.605465 -0.01928,0.06142 -0.03248,0.125909 -0.0632,0.18248 -0.02506,0.04616 -0.07346,0.07614 -0.101374,0.120626 -0.01658,0.02642 -0.01998,0.0591 -0.02996,0.08865 -0.0167,0.02371 -0.0334,0.04743 -0.05009,0.07114 -0.03042,-0.01548 -0.06762,-0.02182 -0.09127,-0.04644 -0.13393,-0.139435 -0.0547,-0.375946 0.02767,-0.517339 0.05607,-0.09624 0.147861,-0.182574 0.226857,-0.262198 0.661832,-0.407282 0.08585,-1.343254 -0.575983,-0.935973 z" />
  <path
     style="fill:#0000ff"
     id="path648"
     d="m 43.980004,19.859572 c 0.03018,0.762721 0.07914,1.524683 0.146821,2.284968 0.01635,0.107599 0.0327,0.215197 0.04905,0.322796 0.119507,0.767866 1.205434,0.598858 1.085927,-0.169008 v 0 c -0.01344,-0.08384 -0.02689,-0.167672 -0.04033,-0.251507 -0.0672,-0.750549 -0.114404,-1.502848 -0.144608,-2.255803 -0.04848,-0.775597 -1.145334,-0.707043 -1.09686,0.06855 z" />
  <path
     style="fill:#0000ff"
     id="path650"
     d="m 44.982854,20.441475 c 0.249308,-0.01922 0.4982,0.0283 0.709811,0.165506 0.06305,0.04088 0.129909,0.08007 0.179128,0.136848 0.03179,0.03667 0.03733,0.08959 0.056,0.134384 0.0086,0.05616 0.0279,0.111699 0.02584,0.168476 -0.0023,0.06199 -0.02032,0.122769 -0.03858,0.182054 -0.02531,0.08218 -0.05026,0.165771 -0.09172,0.241096 -0.08432,0.153179 -0.27785,0.366192 -0.409256,0.470888 -0.08799,0.07011 -0.189985,0.120555 -0.284978,0.180832 -0.640741,0.439718 -0.01889,1.345862 0.621855,0.906144 v 0 c 0.153581,-0.11031 0.319325,-0.205404 0.460742,-0.33093 0.550825,-0.488928 0.927988,-1.230583 0.78974,-1.981622 -0.03043,-0.165341 -0.117945,-0.314873 -0.176917,-0.47231 -0.107296,-0.132977 -0.19743,-0.28186 -0.321887,-0.398932 -0.103432,-0.0973 -0.228751,-0.170105 -0.354059,-0.236908 -0.454326,-0.2422 -0.963705,-0.317604 -1.467627,-0.222241 -0.74721,0.213489 -0.445291,1.270204 0.301919,1.056715 z" />
</svg>
